<svg width="1320" height="504" viewBox="0 0 1320 504" fill="none" xmlns="http://www.w3.org/2000/svg">
<g filter="url(#filter0_d)">
<rect x="80" y="40" width="1160" height="344" rx="24" fill="url(#paint0_linear)"/>
</g>
<mask id="mask0" mask-type="alpha" maskUnits="userSpaceOnUse" x="80" y="40" width="1160" height="344">
<rect x="80" y="40" width="1160" height="344" rx="24" fill="white"/>
</mask>
<g mask="url(#mask0)">
<path d="M378 384C378 465.738 311.738 532 230 532C148.262 532 82 465.738 82 384C82 302.262 148.262 236 230 236C311.738 236 378 302.262 378 384Z" stroke="#3D78FD" stroke-width="24"/>
<path d="M788 40C788 110.692 730.692 168 660 168C589.308 168 532 110.692 532 40C532 -30.6924 589.308 -88 660 -88C730.692 -88 788 -30.6924 788 40Z" stroke="#4769FE" stroke-width="24"/>
<path d="M1408 384C1408 476.784 1332.78 552 1240 552C1147.22 552 1072 476.784 1072 384C1072 291.216 1147.22 216 1240 216C1332.78 216 1408 291.216 1408 384Z" stroke="#4F50FF" stroke-width="24"/>
<g opacity="0.498489">
<path fill-rule="evenodd" clip-rule="evenodd" d="M1143.67 83.2984C1154.48 75.2781 1172.87 70 1193.74 70C1227.02 70 1254 83.4315 1254 100H1094C1094 90.0589 1110.19 82 1130.16 82C1134.93 82 1139.49 82.461 1143.67 83.2984Z" fill="#97B9FF" style="mix-blend-mode:overlay"/>
</g>
<g opacity="0.298038">
<path fill-rule="evenodd" clip-rule="evenodd" d="M999.166 234.649C993.758 230.639 984.564 228 974.132 228C957.49 228 944 234.716 944 243H1024C1024 238.029 1015.91 234 1005.92 234C1003.53 234 1001.25 234.23 999.166 234.649Z" fill="#97B9FF" style="mix-blend-mode:overlay"/>
</g>
<g filter="url(#filter1_d)">
<rect x="226" y="313" width="100" height="80" rx="4" fill="#BBF5FF"/>
<mask id="mask1" mask-type="alpha" maskUnits="userSpaceOnUse" x="226" y="313" width="100" height="80">
<rect x="226" y="313" width="100" height="80" rx="4" fill="white"/>
</mask>
<g mask="url(#mask1)">
<path d="M297 346C297 352.075 292.075 357 286 357C279.925 357 275 352.075 275 346C275 339.925 279.925 335 286 335C292.075 335 297 339.925 297 346Z" stroke="#25CCCE" stroke-width="6"/>
<rect x="272" y="368" width="28" height="6" rx="3" fill="#25CCCE"/>
<rect x="226" y="313" width="20" height="80" fill="#32BAFF"/>
</g>
</g>
<g filter="url(#filter2_d)">
<rect x="193.569" y="232" width="100" height="80" rx="4" transform="rotate(45 193.569 232)" fill="#FFF7E1"/>
<mask id="mask2" mask-type="alpha" maskUnits="userSpaceOnUse" x="138" y="233" width="125" height="125">
<rect x="193.569" y="232" width="100" height="80" rx="4" transform="rotate(45 193.569 232)" fill="white"/>
</mask>
<g mask="url(#mask2)">
<path d="M220.439 305.539C216.143 309.835 209.178 309.835 204.882 305.539C200.586 301.243 200.586 294.278 204.882 289.983C209.178 285.687 216.143 285.687 220.439 289.983C224.734 294.278 224.734 301.243 220.439 305.539Z" stroke="#FFAD73" stroke-width="6"/>
<rect x="187.205" y="303.418" width="28" height="6" rx="3" transform="rotate(45 187.205 303.418)" fill="#FFAD73"/>
<rect x="193.569" y="232" width="20" height="80" transform="rotate(45 193.569 232)" fill="#FF73A6"/>
</g>
</g>
<path fill-rule="evenodd" clip-rule="evenodd" d="M511 417C676.685 417 811 282.685 811 117C811 -48.6854 676.685 -183 511 -183C345.315 -183 211 -48.6854 211 117C211 282.685 345.315 417 511 417Z" fill="url(#paint1_radial)" style="mix-blend-mode:overlay"/>
<path fill-rule="evenodd" clip-rule="evenodd" d="M1281 897C1612.37 897 1881 628.371 1881 297C1881 -34.3708 1612.37 -303 1281 -303C949.629 -303 681 -34.3708 681 297C681 628.371 949.629 897 1281 897Z" fill="url(#paint2_radial)" style="mix-blend-mode:overlay"/>
</g>
<g filter="url(#filter3_d)">
<rect x="540" y="244" width="240" height="60" rx="30" fill="white"/>
</g>
<path d="M607.368 280.192C606.226 280.192 605.192 279.947 604.264 279.456C603.346 278.955 602.621 278.267 602.088 277.392C601.565 276.507 601.304 275.509 601.304 274.4C601.304 273.291 601.565 272.299 602.088 271.424C602.621 270.539 603.346 269.851 604.264 269.36C605.192 268.859 606.232 268.608 607.384 268.608C608.354 268.608 609.229 268.779 610.008 269.12C610.797 269.461 611.458 269.952 611.992 270.592L610.328 272.128C609.57 271.253 608.632 270.816 607.512 270.816C606.818 270.816 606.2 270.971 605.656 271.28C605.112 271.579 604.685 272 604.376 272.544C604.077 273.088 603.928 273.707 603.928 274.4C603.928 275.093 604.077 275.712 604.376 276.256C604.685 276.8 605.112 277.227 605.656 277.536C606.2 277.835 606.818 277.984 607.512 277.984C608.632 277.984 609.57 277.541 610.328 276.656L611.992 278.192C611.458 278.843 610.797 279.339 610.008 279.68C609.218 280.021 608.338 280.192 607.368 280.192ZM617.365 280.128C616.459 280.128 615.643 279.941 614.917 279.568C614.203 279.184 613.643 278.656 613.237 277.984C612.832 277.312 612.629 276.549 612.629 275.696C612.629 274.843 612.832 274.08 613.237 273.408C613.643 272.736 614.203 272.213 614.917 271.84C615.643 271.456 616.459 271.264 617.365 271.264C618.272 271.264 619.083 271.456 619.797 271.84C620.512 272.213 621.072 272.736 621.477 273.408C621.883 274.08 622.085 274.843 622.085 275.696C622.085 276.549 621.883 277.312 621.477 277.984C621.072 278.656 620.512 279.184 619.797 279.568C619.083 279.941 618.272 280.128 617.365 280.128ZM617.365 278.08C618.005 278.08 618.528 277.867 618.933 277.44C619.349 277.003 619.557 276.421 619.557 275.696C619.557 274.971 619.349 274.395 618.933 273.968C618.528 273.531 618.005 273.312 617.365 273.312C616.725 273.312 616.197 273.531 615.781 273.968C615.365 274.395 615.157 274.971 615.157 275.696C615.157 276.421 615.365 277.003 615.781 277.44C616.197 277.867 616.725 278.08 617.365 278.08ZM634.778 271.264C635.855 271.264 636.708 271.584 637.338 272.224C637.978 272.853 638.298 273.803 638.298 275.072V280H635.802V275.456C635.802 274.773 635.658 274.267 635.37 273.936C635.092 273.595 634.692 273.424 634.17 273.424C633.583 273.424 633.119 273.616 632.778 274C632.436 274.373 632.266 274.933 632.266 275.68V280H629.77V275.456C629.77 274.101 629.226 273.424 628.138 273.424C627.562 273.424 627.103 273.616 626.762 274C626.42 274.373 626.25 274.933 626.25 275.68V280H623.754V271.392H626.138V272.384C626.458 272.021 626.847 271.744 627.306 271.552C627.775 271.36 628.287 271.264 628.842 271.264C629.45 271.264 629.999 271.387 630.49 271.632C630.98 271.867 631.375 272.213 631.674 272.672C632.026 272.224 632.468 271.877 633.002 271.632C633.546 271.387 634.138 271.264 634.778 271.264ZM640.535 271.392H643.031V280H640.535V271.392ZM641.783 270.192C641.324 270.192 640.951 270.059 640.663 269.792C640.375 269.525 640.231 269.195 640.231 268.8C640.231 268.405 640.375 268.075 640.663 267.808C640.951 267.541 641.324 267.408 641.783 267.408C642.241 267.408 642.615 267.536 642.903 267.792C643.191 268.048 643.335 268.368 643.335 268.752C643.335 269.168 643.191 269.515 642.903 269.792C642.615 270.059 642.241 270.192 641.783 270.192ZM650.579 271.264C651.646 271.264 652.505 271.584 653.155 272.224C653.817 272.864 654.147 273.813 654.147 275.072V280H651.651V275.456C651.651 274.773 651.502 274.267 651.203 273.936C650.905 273.595 650.473 273.424 649.907 273.424C649.278 273.424 648.777 273.621 648.403 274.016C648.03 274.4 647.843 274.976 647.843 275.744V280H645.347V271.392H647.731V272.4C648.062 272.037 648.473 271.76 648.963 271.568C649.454 271.365 649.993 271.264 650.579 271.264ZM665.384 271.392V278.56C665.384 280.139 664.973 281.312 664.152 282.08C663.33 282.848 662.13 283.232 660.552 283.232C659.72 283.232 658.93 283.131 658.184 282.928C657.437 282.725 656.818 282.432 656.328 282.048L657.32 280.256C657.682 280.555 658.141 280.789 658.696 280.96C659.25 281.141 659.805 281.232 660.36 281.232C661.224 281.232 661.858 281.035 662.264 280.64C662.68 280.256 662.888 279.669 662.888 278.88V278.512C662.237 279.227 661.33 279.584 660.168 279.584C659.378 279.584 658.653 279.413 657.992 279.072C657.341 278.72 656.824 278.229 656.44 277.6C656.056 276.971 655.864 276.245 655.864 275.424C655.864 274.603 656.056 273.877 656.44 273.248C656.824 272.619 657.341 272.133 657.992 271.792C658.653 271.44 659.378 271.264 660.168 271.264C661.416 271.264 662.365 271.675 663.016 272.496V271.392H665.384ZM660.664 277.536C661.325 277.536 661.864 277.344 662.28 276.96C662.706 276.565 662.92 276.053 662.92 275.424C662.92 274.795 662.706 274.288 662.28 273.904C661.864 273.509 661.325 273.312 660.664 273.312C660.002 273.312 659.458 273.509 659.032 273.904C658.605 274.288 658.392 274.795 658.392 275.424C658.392 276.053 658.605 276.565 659.032 276.96C659.458 277.344 660.002 277.536 660.664 277.536ZM676.094 280.192C675.209 280.192 674.35 280.075 673.518 279.84C672.697 279.595 672.035 279.28 671.534 278.896L672.414 276.944C672.894 277.296 673.465 277.579 674.126 277.792C674.787 278.005 675.449 278.112 676.11 278.112C676.846 278.112 677.39 278.005 677.742 277.792C678.094 277.568 678.27 277.275 678.27 276.912C678.27 276.645 678.163 276.427 677.95 276.256C677.747 276.075 677.481 275.931 677.15 275.824C676.83 275.717 676.393 275.6 675.838 275.472C674.985 275.269 674.286 275.067 673.742 274.864C673.198 274.661 672.729 274.336 672.334 273.888C671.95 273.44 671.758 272.843 671.758 272.096C671.758 271.445 671.934 270.859 672.286 270.336C672.638 269.803 673.166 269.381 673.87 269.072C674.585 268.763 675.454 268.608 676.478 268.608C677.193 268.608 677.891 268.693 678.574 268.864C679.257 269.035 679.854 269.28 680.366 269.6L679.566 271.568C678.531 270.981 677.497 270.688 676.462 270.688C675.737 270.688 675.198 270.805 674.846 271.04C674.505 271.275 674.334 271.584 674.334 271.968C674.334 272.352 674.531 272.64 674.926 272.832C675.331 273.013 675.945 273.195 676.766 273.376C677.619 273.579 678.318 273.781 678.862 273.984C679.406 274.187 679.87 274.507 680.254 274.944C680.649 275.381 680.846 275.973 680.846 276.72C680.846 277.36 680.665 277.947 680.302 278.48C679.95 279.003 679.417 279.419 678.702 279.728C677.987 280.037 677.118 280.192 676.094 280.192ZM686.537 280.128C685.63 280.128 684.814 279.941 684.089 279.568C683.374 279.184 682.814 278.656 682.409 277.984C682.004 277.312 681.801 276.549 681.801 275.696C681.801 274.843 682.004 274.08 682.409 273.408C682.814 272.736 683.374 272.213 684.089 271.84C684.814 271.456 685.63 271.264 686.537 271.264C687.444 271.264 688.254 271.456 688.969 271.84C689.684 272.213 690.244 272.736 690.649 273.408C691.054 274.08 691.257 274.843 691.257 275.696C691.257 276.549 691.054 277.312 690.649 277.984C690.244 278.656 689.684 279.184 688.969 279.568C688.254 279.941 687.444 280.128 686.537 280.128ZM686.537 278.08C687.177 278.08 687.7 277.867 688.105 277.44C688.521 277.003 688.729 276.421 688.729 275.696C688.729 274.971 688.521 274.395 688.105 273.968C687.7 273.531 687.177 273.312 686.537 273.312C685.897 273.312 685.369 273.531 684.953 273.968C684.537 274.395 684.329 274.971 684.329 275.696C684.329 276.421 684.537 277.003 684.953 277.44C685.369 277.867 685.897 278.08 686.537 278.08ZM697.021 280.128C696.115 280.128 695.299 279.941 694.573 279.568C693.859 279.184 693.299 278.656 692.893 277.984C692.488 277.312 692.285 276.549 692.285 275.696C692.285 274.843 692.488 274.08 692.893 273.408C693.299 272.736 693.859 272.213 694.573 271.84C695.299 271.456 696.115 271.264 697.021 271.264C697.928 271.264 698.739 271.456 699.453 271.84C700.168 272.213 700.728 272.736 701.133 273.408C701.539 274.08 701.741 274.843 701.741 275.696C701.741 276.549 701.539 277.312 701.133 277.984C700.728 278.656 700.168 279.184 699.453 279.568C698.739 279.941 697.928 280.128 697.021 280.128ZM697.021 278.08C697.661 278.08 698.184 277.867 698.589 277.44C699.005 277.003 699.213 276.421 699.213 275.696C699.213 274.971 699.005 274.395 698.589 273.968C698.184 273.531 697.661 273.312 697.021 273.312C696.381 273.312 695.853 273.531 695.437 273.968C695.021 274.395 694.813 274.971 694.813 275.696C694.813 276.421 695.021 277.003 695.437 277.44C695.853 277.867 696.381 278.08 697.021 278.08ZM708.642 271.264C709.708 271.264 710.567 271.584 711.218 272.224C711.879 272.864 712.21 273.813 712.21 275.072V280H709.714V275.456C709.714 274.773 709.564 274.267 709.266 273.936C708.967 273.595 708.535 273.424 707.97 273.424C707.34 273.424 706.839 273.621 706.466 274.016C706.092 274.4 705.906 274.976 705.906 275.744V280H703.41V271.392H705.794V272.4C706.124 272.037 706.535 271.76 707.026 271.568C707.516 271.365 708.055 271.264 708.642 271.264Z" fill="#2428BB"/>
<path d="M196.259 150L192.479 144.54H192.255H188.307V150H183.771V130.4H192.255C193.991 130.4 195.494 130.689 196.763 131.268C198.051 131.847 199.041 132.668 199.731 133.732C200.422 134.796 200.767 136.056 200.767 137.512C200.767 138.968 200.413 140.228 199.703 141.292C199.013 142.337 198.023 143.14 196.735 143.7L201.131 150H196.259ZM196.175 137.512C196.175 136.411 195.821 135.571 195.111 134.992C194.402 134.395 193.366 134.096 192.003 134.096H188.307V140.928H192.003C193.366 140.928 194.402 140.629 195.111 140.032C195.821 139.435 196.175 138.595 196.175 137.512ZM218.94 142.524C218.94 142.58 218.912 142.972 218.856 143.7H207.46C207.665 144.633 208.15 145.371 208.916 145.912C209.681 146.453 210.633 146.724 211.772 146.724C212.556 146.724 213.246 146.612 213.844 146.388C214.46 146.145 215.029 145.772 215.552 145.268L217.876 147.788C216.457 149.412 214.385 150.224 211.66 150.224C209.961 150.224 208.458 149.897 207.152 149.244C205.845 148.572 204.837 147.648 204.128 146.472C203.418 145.296 203.064 143.961 203.064 142.468C203.064 140.993 203.409 139.668 204.1 138.492C204.809 137.297 205.77 136.373 206.984 135.72C208.216 135.048 209.588 134.712 211.1 134.712C212.574 134.712 213.909 135.029 215.104 135.664C216.298 136.299 217.232 137.213 217.904 138.408C218.594 139.584 218.94 140.956 218.94 142.524ZM211.128 138.016C210.138 138.016 209.308 138.296 208.636 138.856C207.964 139.416 207.553 140.181 207.404 141.152H214.824C214.674 140.2 214.264 139.444 213.592 138.884C212.92 138.305 212.098 138.016 211.128 138.016ZM237.518 134.936V147.48C237.518 150.243 236.8 152.296 235.362 153.64C233.925 154.984 231.825 155.656 229.062 155.656C227.606 155.656 226.225 155.479 224.918 155.124C223.612 154.769 222.529 154.256 221.67 153.584L223.406 150.448C224.041 150.971 224.844 151.381 225.814 151.68C226.785 151.997 227.756 152.156 228.726 152.156C230.238 152.156 231.349 151.811 232.058 151.12C232.786 150.448 233.15 149.421 233.15 148.04V147.396C232.012 148.647 230.425 149.272 228.39 149.272C227.009 149.272 225.74 148.973 224.582 148.376C223.444 147.76 222.538 146.901 221.866 145.8C221.194 144.699 220.858 143.429 220.858 141.992C220.858 140.555 221.194 139.285 221.866 138.184C222.538 137.083 223.444 136.233 224.582 135.636C225.74 135.02 227.009 134.712 228.39 134.712C230.574 134.712 232.236 135.431 233.374 136.868V134.936H237.518ZM229.258 145.688C230.416 145.688 231.358 145.352 232.086 144.68C232.833 143.989 233.206 143.093 233.206 141.992C233.206 140.891 232.833 140.004 232.086 139.332C231.358 138.641 230.416 138.296 229.258 138.296C228.101 138.296 227.149 138.641 226.402 139.332C225.656 140.004 225.282 140.891 225.282 141.992C225.282 143.093 225.656 143.989 226.402 144.68C227.149 145.352 228.101 145.688 229.258 145.688ZM241.714 134.936H246.082V150H241.714V134.936ZM243.898 132.836C243.096 132.836 242.442 132.603 241.938 132.136C241.434 131.669 241.182 131.091 241.182 130.4C241.182 129.709 241.434 129.131 241.938 128.664C242.442 128.197 243.096 127.964 243.898 127.964C244.701 127.964 245.354 128.188 245.858 128.636C246.362 129.084 246.614 129.644 246.614 130.316C246.614 131.044 246.362 131.651 245.858 132.136C245.354 132.603 244.701 132.836 243.898 132.836ZM255.335 150.224C254.084 150.224 252.861 150.075 251.667 149.776C250.472 149.459 249.52 149.067 248.811 148.6L250.267 145.464C250.939 145.893 251.751 146.248 252.703 146.528C253.655 146.789 254.588 146.92 255.503 146.92C257.351 146.92 258.275 146.463 258.275 145.548C258.275 145.119 258.023 144.811 257.519 144.624C257.015 144.437 256.24 144.279 255.195 144.148C253.963 143.961 252.945 143.747 252.143 143.504C251.34 143.261 250.64 142.832 250.043 142.216C249.464 141.6 249.175 140.723 249.175 139.584C249.175 138.632 249.445 137.792 249.987 137.064C250.547 136.317 251.349 135.739 252.395 135.328C253.459 134.917 254.709 134.712 256.147 134.712C257.211 134.712 258.265 134.833 259.311 135.076C260.375 135.3 261.252 135.617 261.943 136.028L260.487 139.136C259.161 138.389 257.715 138.016 256.147 138.016C255.213 138.016 254.513 138.147 254.047 138.408C253.58 138.669 253.347 139.005 253.347 139.416C253.347 139.883 253.599 140.209 254.103 140.396C254.607 140.583 255.409 140.76 256.511 140.928C257.743 141.133 258.751 141.357 259.535 141.6C260.319 141.824 261 142.244 261.579 142.86C262.157 143.476 262.447 144.335 262.447 145.436C262.447 146.369 262.167 147.2 261.607 147.928C261.047 148.656 260.225 149.225 259.143 149.636C258.079 150.028 256.809 150.224 255.335 150.224ZM274.988 149.272C274.559 149.589 274.027 149.832 273.392 150C272.776 150.149 272.123 150.224 271.432 150.224C269.64 150.224 268.249 149.767 267.26 148.852C266.289 147.937 265.804 146.593 265.804 144.82V138.632H263.48V135.272H265.804V131.604H270.172V135.272H273.924V138.632H270.172V144.764C270.172 145.399 270.331 145.893 270.648 146.248C270.984 146.584 271.451 146.752 272.048 146.752C272.739 146.752 273.327 146.565 273.812 146.192L274.988 149.272ZM291.862 142.524C291.862 142.58 291.834 142.972 291.778 143.7H280.382C280.587 144.633 281.072 145.371 281.838 145.912C282.603 146.453 283.555 146.724 284.694 146.724C285.478 146.724 286.168 146.612 286.766 146.388C287.382 146.145 287.951 145.772 288.474 145.268L290.798 147.788C289.379 149.412 287.307 150.224 284.582 150.224C282.883 150.224 281.38 149.897 280.074 149.244C278.767 148.572 277.759 147.648 277.05 146.472C276.34 145.296 275.986 143.961 275.986 142.468C275.986 140.993 276.331 139.668 277.022 138.492C277.731 137.297 278.692 136.373 279.906 135.72C281.138 135.048 282.51 134.712 284.022 134.712C285.496 134.712 286.831 135.029 288.026 135.664C289.22 136.299 290.154 137.213 290.826 138.408C291.516 139.584 291.862 140.956 291.862 142.524ZM284.05 138.016C283.06 138.016 282.23 138.296 281.558 138.856C280.886 139.416 280.475 140.181 280.326 141.152H287.746C287.596 140.2 287.186 139.444 286.514 138.884C285.842 138.305 285.02 138.016 284.05 138.016ZM299.072 136.924C299.595 136.196 300.295 135.645 301.172 135.272C302.068 134.899 303.095 134.712 304.252 134.712V138.744C303.767 138.707 303.44 138.688 303.272 138.688C302.022 138.688 301.042 139.043 300.332 139.752C299.623 140.443 299.268 141.488 299.268 142.888V150H294.9V134.936H299.072V136.924ZM321.226 134.712C323.559 134.712 325.351 135.272 326.602 136.392C327.852 137.493 328.478 139.164 328.478 141.404V150H324.39V148.124C323.568 149.524 322.038 150.224 319.798 150.224C318.64 150.224 317.632 150.028 316.774 149.636C315.934 149.244 315.29 148.703 314.842 148.012C314.394 147.321 314.17 146.537 314.17 145.66C314.17 144.26 314.692 143.159 315.738 142.356C316.802 141.553 318.435 141.152 320.638 141.152H324.11C324.11 140.2 323.82 139.472 323.242 138.968C322.663 138.445 321.795 138.184 320.638 138.184C319.835 138.184 319.042 138.315 318.258 138.576C317.492 138.819 316.839 139.155 316.298 139.584L314.73 136.532C315.551 135.953 316.531 135.505 317.67 135.188C318.827 134.871 320.012 134.712 321.226 134.712ZM320.89 147.284C321.636 147.284 322.299 147.116 322.878 146.78C323.456 146.425 323.867 145.912 324.11 145.24V143.7H321.114C319.322 143.7 318.426 144.288 318.426 145.464C318.426 146.024 318.64 146.472 319.07 146.808C319.518 147.125 320.124 147.284 320.89 147.284ZM337.629 150.224C336.379 150.224 335.156 150.075 333.961 149.776C332.767 149.459 331.815 149.067 331.105 148.6L332.561 145.464C333.233 145.893 334.045 146.248 334.997 146.528C335.949 146.789 336.883 146.92 337.797 146.92C339.645 146.92 340.569 146.463 340.569 145.548C340.569 145.119 340.317 144.811 339.813 144.624C339.309 144.437 338.535 144.279 337.489 144.148C336.257 143.961 335.24 143.747 334.437 143.504C333.635 143.261 332.935 142.832 332.337 142.216C331.759 141.6 331.469 140.723 331.469 139.584C331.469 138.632 331.74 137.792 332.281 137.064C332.841 136.317 333.644 135.739 334.689 135.328C335.753 134.917 337.004 134.712 338.441 134.712C339.505 134.712 340.56 134.833 341.605 135.076C342.669 135.3 343.547 135.617 344.237 136.028L342.781 139.136C341.456 138.389 340.009 138.016 338.441 138.016C337.508 138.016 336.808 138.147 336.341 138.408C335.875 138.669 335.641 139.005 335.641 139.416C335.641 139.883 335.893 140.209 336.397 140.396C336.901 140.583 337.704 140.76 338.805 140.928C340.037 141.133 341.045 141.357 341.829 141.6C342.613 141.824 343.295 142.244 343.873 142.86C344.452 143.476 344.741 144.335 344.741 145.436C344.741 146.369 344.461 147.2 343.901 147.928C343.341 148.656 342.52 149.225 341.437 149.636C340.373 150.028 339.104 150.224 337.629 150.224ZM360.415 135.272H364.279V138.632H360.527V150H356.159V138.632H353.835V135.272H356.159V134.6C356.159 132.883 356.663 131.52 357.671 130.512C358.698 129.504 360.135 129 361.983 129C362.636 129 363.252 129.075 363.831 129.224C364.428 129.355 364.923 129.551 365.315 129.812L364.167 132.976C363.663 132.621 363.075 132.444 362.403 132.444C361.078 132.444 360.415 133.172 360.415 134.628V135.272ZM366.463 129.224H370.831V150H366.463V129.224ZM389.791 142.524C389.791 142.58 389.763 142.972 389.707 143.7H378.311C378.516 144.633 379.002 145.371 379.767 145.912C380.532 146.453 381.484 146.724 382.623 146.724C383.407 146.724 384.098 146.612 384.695 146.388C385.311 146.145 385.88 145.772 386.403 145.268L388.727 147.788C387.308 149.412 385.236 150.224 382.511 150.224C380.812 150.224 379.31 149.897 378.003 149.244C376.696 148.572 375.688 147.648 374.979 146.472C374.27 145.296 373.915 143.961 373.915 142.468C373.915 140.993 374.26 139.668 374.951 138.492C375.66 137.297 376.622 136.373 377.835 135.72C379.067 135.048 380.439 134.712 381.951 134.712C383.426 134.712 384.76 135.029 385.955 135.664C387.15 136.299 388.083 137.213 388.755 138.408C389.446 139.584 389.791 140.956 389.791 142.524ZM381.979 138.016C380.99 138.016 380.159 138.296 379.487 138.856C378.815 139.416 378.404 140.181 378.255 141.152H385.675C385.526 140.2 385.115 139.444 384.443 138.884C383.771 138.305 382.95 138.016 381.979 138.016ZM407.586 142.524C407.586 142.58 407.558 142.972 407.502 143.7H396.106C396.311 144.633 396.796 145.371 397.562 145.912C398.327 146.453 399.279 146.724 400.418 146.724C401.202 146.724 401.892 146.612 402.49 146.388C403.106 146.145 403.675 145.772 404.198 145.268L406.522 147.788C405.103 149.412 403.031 150.224 400.306 150.224C398.607 150.224 397.104 149.897 395.798 149.244C394.491 148.572 393.483 147.648 392.774 146.472C392.064 145.296 391.71 143.961 391.71 142.468C391.71 140.993 392.055 139.668 392.746 138.492C393.455 137.297 394.416 136.373 395.63 135.72C396.862 135.048 398.234 134.712 399.746 134.712C401.22 134.712 402.555 135.029 403.75 135.664C404.944 136.299 405.878 137.213 406.55 138.408C407.24 139.584 407.586 140.956 407.586 142.524ZM399.774 138.016C398.784 138.016 397.954 138.296 397.282 138.856C396.61 139.416 396.199 140.181 396.05 141.152H403.47C403.32 140.2 402.91 139.444 402.238 138.884C401.566 138.305 400.744 138.016 399.774 138.016ZM420.34 149.272C419.911 149.589 419.379 149.832 418.744 150C418.128 150.149 417.475 150.224 416.784 150.224C414.992 150.224 413.602 149.767 412.612 148.852C411.642 147.937 411.156 146.593 411.156 144.82V138.632H408.832V135.272H411.156V131.604H415.524V135.272H419.276V138.632H415.524V144.764C415.524 145.399 415.683 145.893 416 146.248C416.336 146.584 416.803 146.752 417.4 146.752C418.091 146.752 418.679 146.565 419.164 146.192L420.34 149.272ZM438.151 150.224C436.564 150.224 435.136 149.897 433.867 149.244C432.616 148.572 431.636 147.648 430.927 146.472C430.218 145.296 429.863 143.961 429.863 142.468C429.863 140.975 430.218 139.64 430.927 138.464C431.636 137.288 432.616 136.373 433.867 135.72C435.136 135.048 436.564 134.712 438.151 134.712C439.738 134.712 441.156 135.048 442.407 135.72C443.658 136.373 444.638 137.288 445.347 138.464C446.056 139.64 446.411 140.975 446.411 142.468C446.411 143.961 446.056 145.296 445.347 146.472C444.638 147.648 443.658 148.572 442.407 149.244C441.156 149.897 439.738 150.224 438.151 150.224ZM438.151 146.64C439.271 146.64 440.186 146.267 440.895 145.52C441.623 144.755 441.987 143.737 441.987 142.468C441.987 141.199 441.623 140.191 440.895 139.444C440.186 138.679 439.271 138.296 438.151 138.296C437.031 138.296 436.107 138.679 435.379 139.444C434.651 140.191 434.287 141.199 434.287 142.468C434.287 143.737 434.651 144.755 435.379 145.52C436.107 146.267 437.031 146.64 438.151 146.64ZM458.365 134.712C459.765 134.712 461.034 135.039 462.173 135.692C463.33 136.327 464.236 137.232 464.889 138.408C465.542 139.565 465.869 140.919 465.869 142.468C465.869 144.017 465.542 145.38 464.889 146.556C464.236 147.713 463.33 148.619 462.173 149.272C461.034 149.907 459.765 150.224 458.365 150.224C456.442 150.224 454.93 149.617 453.829 148.404V155.432H449.461V134.936H453.633V136.672C454.716 135.365 456.293 134.712 458.365 134.712ZM457.609 146.64C458.729 146.64 459.644 146.267 460.353 145.52C461.081 144.755 461.445 143.737 461.445 142.468C461.445 141.199 461.081 140.191 460.353 139.444C459.644 138.679 458.729 138.296 457.609 138.296C456.489 138.296 455.565 138.679 454.837 139.444C454.128 140.191 453.773 141.199 453.773 142.468C453.773 143.737 454.128 144.755 454.837 145.52C455.565 146.267 456.489 146.64 457.609 146.64ZM483.68 142.524C483.68 142.58 483.652 142.972 483.596 143.7H472.2C472.405 144.633 472.89 145.371 473.656 145.912C474.421 146.453 475.373 146.724 476.512 146.724C477.296 146.724 477.986 146.612 478.584 146.388C479.2 146.145 479.769 145.772 480.292 145.268L482.616 147.788C481.197 149.412 479.125 150.224 476.4 150.224C474.701 150.224 473.198 149.897 471.892 149.244C470.585 148.572 469.577 147.648 468.868 146.472C468.158 145.296 467.804 143.961 467.804 142.468C467.804 140.993 468.149 139.668 468.84 138.492C469.549 137.297 470.51 136.373 471.724 135.72C472.956 135.048 474.328 134.712 475.84 134.712C477.314 134.712 478.649 135.029 479.844 135.664C481.038 136.299 481.972 137.213 482.644 138.408C483.334 139.584 483.68 140.956 483.68 142.524ZM475.868 138.016C474.878 138.016 474.048 138.296 473.376 138.856C472.704 139.416 472.293 140.181 472.144 141.152H479.564C479.414 140.2 479.004 139.444 478.332 138.884C477.66 138.305 476.838 138.016 475.868 138.016ZM490.89 136.924C491.413 136.196 492.113 135.645 492.99 135.272C493.886 134.899 494.913 134.712 496.07 134.712V138.744C495.585 138.707 495.258 138.688 495.09 138.688C493.84 138.688 492.86 139.043 492.15 139.752C491.441 140.443 491.086 141.488 491.086 142.888V150H486.718V134.936H490.89V136.924ZM504.792 134.712C507.125 134.712 508.917 135.272 510.168 136.392C511.419 137.493 512.044 139.164 512.044 141.404V150H507.956V148.124C507.135 149.524 505.604 150.224 503.364 150.224C502.207 150.224 501.199 150.028 500.34 149.636C499.5 149.244 498.856 148.703 498.408 148.012C497.96 147.321 497.736 146.537 497.736 145.66C497.736 144.26 498.259 143.159 499.304 142.356C500.368 141.553 502.001 141.152 504.204 141.152H507.676C507.676 140.2 507.387 139.472 506.808 138.968C506.229 138.445 505.361 138.184 504.204 138.184C503.401 138.184 502.608 138.315 501.824 138.576C501.059 138.819 500.405 139.155 499.864 139.584L498.296 136.532C499.117 135.953 500.097 135.505 501.236 135.188C502.393 134.871 503.579 134.712 504.792 134.712ZM504.456 147.284C505.203 147.284 505.865 147.116 506.444 146.78C507.023 146.425 507.433 145.912 507.676 145.24V143.7H504.68C502.888 143.7 501.992 144.288 501.992 145.464C501.992 146.024 502.207 146.472 502.636 146.808C503.084 147.125 503.691 147.284 504.456 147.284ZM525.844 149.272C525.414 149.589 524.882 149.832 524.248 150C523.632 150.149 522.978 150.224 522.288 150.224C520.496 150.224 519.105 149.767 518.116 148.852C517.145 147.937 516.66 146.593 516.66 144.82V138.632H514.336V135.272H516.66V131.604H521.028V135.272H524.78V138.632H521.028V144.764C521.028 145.399 521.186 145.893 521.504 146.248C521.84 146.584 522.306 146.752 522.904 146.752C523.594 146.752 524.182 146.565 524.668 146.192L525.844 149.272ZM535.129 150.224C533.543 150.224 532.115 149.897 530.845 149.244C529.595 148.572 528.615 147.648 527.905 146.472C527.196 145.296 526.841 143.961 526.841 142.468C526.841 140.975 527.196 139.64 527.905 138.464C528.615 137.288 529.595 136.373 530.845 135.72C532.115 135.048 533.543 134.712 535.129 134.712C536.716 134.712 538.135 135.048 539.385 135.72C540.636 136.373 541.616 137.288 542.325 138.464C543.035 139.64 543.389 140.975 543.389 142.468C543.389 143.961 543.035 145.296 542.325 146.472C541.616 147.648 540.636 148.572 539.385 149.244C538.135 149.897 536.716 150.224 535.129 150.224ZM535.129 146.64C536.249 146.64 537.164 146.267 537.873 145.52C538.601 144.755 538.965 143.737 538.965 142.468C538.965 141.199 538.601 140.191 537.873 139.444C537.164 138.679 536.249 138.296 535.129 138.296C534.009 138.296 533.085 138.679 532.357 139.444C531.629 140.191 531.265 141.199 531.265 142.468C531.265 143.737 531.629 144.755 532.357 145.52C533.085 146.267 534.009 146.64 535.129 146.64ZM550.611 136.924C551.134 136.196 551.834 135.645 552.711 135.272C553.607 134.899 554.634 134.712 555.791 134.712V138.744C555.306 138.707 554.979 138.688 554.811 138.688C553.561 138.688 552.581 139.043 551.871 139.752C551.162 140.443 550.807 141.488 550.807 142.888V150H546.439V134.936H550.611V136.924ZM563.642 150.224C562.391 150.224 561.169 150.075 559.974 149.776C558.779 149.459 557.827 149.067 557.118 148.6L558.574 145.464C559.246 145.893 560.058 146.248 561.01 146.528C561.962 146.789 562.895 146.92 563.81 146.92C565.658 146.92 566.582 146.463 566.582 145.548C566.582 145.119 566.33 144.811 565.826 144.624C565.322 144.437 564.547 144.279 563.502 144.148C562.27 143.961 561.253 143.747 560.45 143.504C559.647 143.261 558.947 142.832 558.35 142.216C557.771 141.6 557.482 140.723 557.482 139.584C557.482 138.632 557.753 137.792 558.294 137.064C558.854 136.317 559.657 135.739 560.702 135.328C561.766 134.917 563.017 134.712 564.454 134.712C565.518 134.712 566.573 134.833 567.618 135.076C568.682 135.3 569.559 135.617 570.25 136.028L568.794 139.136C567.469 138.389 566.022 138.016 564.454 138.016C563.521 138.016 562.821 138.147 562.354 138.408C561.887 138.669 561.654 139.005 561.654 139.416C561.654 139.883 561.906 140.209 562.41 140.396C562.914 140.583 563.717 140.76 564.818 140.928C566.05 141.133 567.058 141.357 567.842 141.6C568.626 141.824 569.307 142.244 569.886 142.86C570.465 143.476 570.754 144.335 570.754 145.436C570.754 146.369 570.474 147.2 569.914 147.928C569.354 148.656 568.533 149.225 567.45 149.636C566.386 150.028 565.117 150.224 563.642 150.224ZM575.259 144.792C576.043 144.792 576.687 145.044 577.191 145.548C577.695 146.033 577.947 146.677 577.947 147.48C577.947 147.853 577.901 148.227 577.807 148.6C577.714 148.973 577.509 149.533 577.191 150.28L575.595 154.312H572.823L574.055 149.86C573.589 149.673 573.215 149.375 572.935 148.964C572.674 148.535 572.543 148.04 572.543 147.48C572.543 146.677 572.795 146.033 573.299 145.548C573.822 145.044 574.475 144.792 575.259 144.792ZM596.378 150.224C594.773 150.224 593.326 149.897 592.038 149.244C590.769 148.572 589.77 147.648 589.042 146.472C588.333 145.296 587.978 143.961 587.978 142.468C587.978 140.975 588.333 139.64 589.042 138.464C589.77 137.288 590.769 136.373 592.038 135.72C593.326 135.048 594.773 134.712 596.378 134.712C597.965 134.712 599.346 135.048 600.522 135.72C601.717 136.373 602.585 137.316 603.126 138.548L599.738 140.368C598.954 138.987 597.825 138.296 596.35 138.296C595.212 138.296 594.269 138.669 593.522 139.416C592.776 140.163 592.402 141.18 592.402 142.468C592.402 143.756 592.776 144.773 593.522 145.52C594.269 146.267 595.212 146.64 596.35 146.64C597.844 146.64 598.973 145.949 599.738 144.568L603.126 146.416C602.585 147.611 601.717 148.544 600.522 149.216C599.346 149.888 597.965 150.224 596.378 150.224ZM611.848 134.712C614.181 134.712 615.973 135.272 617.224 136.392C618.474 137.493 619.1 139.164 619.1 141.404V150H615.012V148.124C614.19 149.524 612.66 150.224 610.42 150.224C609.262 150.224 608.254 150.028 607.396 149.636C606.556 149.244 605.912 148.703 605.464 148.012C605.016 147.321 604.792 146.537 604.792 145.66C604.792 144.26 605.314 143.159 606.36 142.356C607.424 141.553 609.057 141.152 611.26 141.152H614.732C614.732 140.2 614.442 139.472 613.864 138.968C613.285 138.445 612.417 138.184 611.26 138.184C610.457 138.184 609.664 138.315 608.88 138.576C608.114 138.819 607.461 139.155 606.92 139.584L605.352 136.532C606.173 135.953 607.153 135.505 608.292 135.188C609.449 134.871 610.634 134.712 611.848 134.712ZM611.512 147.284C612.258 147.284 612.921 147.116 613.5 146.78C614.078 146.425 614.489 145.912 614.732 145.24V143.7H611.736C609.944 143.7 609.048 144.288 609.048 145.464C609.048 146.024 609.262 146.472 609.692 146.808C610.14 147.125 610.746 147.284 611.512 147.284ZM627.356 136.924C627.878 136.196 628.578 135.645 629.456 135.272C630.352 134.899 631.378 134.712 632.536 134.712V138.744C632.05 138.707 631.724 138.688 631.556 138.688C630.305 138.688 629.325 139.043 628.616 139.752C627.906 140.443 627.552 141.488 627.552 142.888V150H623.184V134.936H627.356V136.924ZM650.601 150.224C649.014 150.224 647.586 149.897 646.317 149.244C645.066 148.572 644.086 147.648 643.377 146.472C642.667 145.296 642.313 143.961 642.313 142.468C642.313 140.975 642.667 139.64 643.377 138.464C644.086 137.288 645.066 136.373 646.317 135.72C647.586 135.048 649.014 134.712 650.601 134.712C652.187 134.712 653.606 135.048 654.857 135.72C656.107 136.373 657.087 137.288 657.797 138.464C658.506 139.64 658.861 140.975 658.861 142.468C658.861 143.961 658.506 145.296 657.797 146.472C657.087 147.648 656.107 148.572 654.857 149.244C653.606 149.897 652.187 150.224 650.601 150.224ZM650.601 146.64C651.721 146.64 652.635 146.267 653.345 145.52C654.073 144.755 654.437 143.737 654.437 142.468C654.437 141.199 654.073 140.191 653.345 139.444C652.635 138.679 651.721 138.296 650.601 138.296C649.481 138.296 648.557 138.679 647.829 139.444C647.101 140.191 646.737 141.199 646.737 142.468C646.737 143.737 647.101 144.755 647.829 145.52C648.557 146.267 649.481 146.64 650.601 146.64ZM685.693 134.936L680.233 150H676.033L672.645 140.648L669.145 150H664.945L659.513 134.936H663.629L667.185 145.128L670.881 134.936H674.577L678.161 145.128L681.829 134.936H685.693ZM697.01 134.712C698.877 134.712 700.379 135.272 701.518 136.392C702.675 137.512 703.254 139.173 703.254 141.376V150H698.886V142.048C698.886 140.853 698.625 139.967 698.102 139.388C697.579 138.791 696.823 138.492 695.834 138.492C694.733 138.492 693.855 138.837 693.202 139.528C692.549 140.2 692.222 141.208 692.222 142.552V150H687.854V134.936H692.026V136.7C692.605 136.065 693.323 135.58 694.182 135.244C695.041 134.889 695.983 134.712 697.01 134.712ZM722.264 142.524C722.264 142.58 722.236 142.972 722.18 143.7H710.784C710.989 144.633 711.475 145.371 712.24 145.912C713.005 146.453 713.957 146.724 715.096 146.724C715.88 146.724 716.571 146.612 717.168 146.388C717.784 146.145 718.353 145.772 718.876 145.268L721.2 147.788C719.781 149.412 717.709 150.224 714.984 150.224C713.285 150.224 711.783 149.897 710.476 149.244C709.169 148.572 708.161 147.648 707.452 146.472C706.743 145.296 706.388 143.961 706.388 142.468C706.388 140.993 706.733 139.668 707.424 138.492C708.133 137.297 709.095 136.373 710.308 135.72C711.54 135.048 712.912 134.712 714.424 134.712C715.899 134.712 717.233 135.029 718.428 135.664C719.623 136.299 720.556 137.213 721.228 138.408C721.919 139.584 722.264 140.956 722.264 142.524ZM714.452 138.016C713.463 138.016 712.632 138.296 711.96 138.856C711.288 139.416 710.877 140.181 710.728 141.152H718.148C717.999 140.2 717.588 139.444 716.916 138.884C716.244 138.305 715.423 138.016 714.452 138.016ZM729.474 136.924C729.997 136.196 730.697 135.645 731.574 135.272C732.47 134.899 733.497 134.712 734.654 134.712V138.744C734.169 138.707 733.842 138.688 733.674 138.688C732.424 138.688 731.444 139.043 730.734 139.752C730.025 140.443 729.67 141.488 729.67 142.888V150H725.302V134.936H729.474V136.924ZM742.505 150.224C741.254 150.224 740.032 150.075 738.837 149.776C737.642 149.459 736.69 149.067 735.981 148.6L737.437 145.464C738.109 145.893 738.921 146.248 739.873 146.528C740.825 146.789 741.758 146.92 742.673 146.92C744.521 146.92 745.445 146.463 745.445 145.548C745.445 145.119 745.193 144.811 744.689 144.624C744.185 144.437 743.41 144.279 742.365 144.148C741.133 143.961 740.116 143.747 739.313 143.504C738.51 143.261 737.81 142.832 737.213 142.216C736.634 141.6 736.345 140.723 736.345 139.584C736.345 138.632 736.616 137.792 737.157 137.064C737.717 136.317 738.52 135.739 739.565 135.328C740.629 134.917 741.88 134.712 743.317 134.712C744.381 134.712 745.436 134.833 746.481 135.076C747.545 135.3 748.422 135.617 749.113 136.028L747.657 139.136C746.332 138.389 744.885 138.016 743.317 138.016C742.384 138.016 741.684 138.147 741.217 138.408C740.75 138.669 740.517 139.005 740.517 139.416C740.517 139.883 740.769 140.209 741.273 140.396C741.777 140.583 742.58 140.76 743.681 140.928C744.913 141.133 745.921 141.357 746.705 141.6C747.489 141.824 748.17 142.244 748.749 142.86C749.328 143.476 749.617 144.335 749.617 145.436C749.617 146.369 749.337 147.2 748.777 147.928C748.217 148.656 747.396 149.225 746.313 149.636C745.249 150.028 743.98 150.224 742.505 150.224ZM766.579 134.712C768.912 134.712 770.704 135.272 771.955 136.392C773.205 137.493 773.831 139.164 773.831 141.404V150H769.743V148.124C768.921 149.524 767.391 150.224 765.151 150.224C763.993 150.224 762.985 150.028 762.127 149.636C761.287 149.244 760.643 148.703 760.195 148.012C759.747 147.321 759.523 146.537 759.523 145.66C759.523 144.26 760.045 143.159 761.091 142.356C762.155 141.553 763.788 141.152 765.991 141.152H769.463C769.463 140.2 769.173 139.472 768.595 138.968C768.016 138.445 767.148 138.184 765.991 138.184C765.188 138.184 764.395 138.315 763.611 138.576C762.845 138.819 762.192 139.155 761.651 139.584L760.083 136.532C760.904 135.953 761.884 135.505 763.023 135.188C764.18 134.871 765.365 134.712 766.579 134.712ZM766.243 147.284C766.989 147.284 767.652 147.116 768.231 146.78C768.809 146.425 769.22 145.912 769.463 145.24V143.7H766.467C764.675 143.7 763.779 144.288 763.779 145.464C763.779 146.024 763.993 146.472 764.423 146.808C764.871 147.125 765.477 147.284 766.243 147.284ZM787.07 134.712C788.937 134.712 790.44 135.272 791.578 136.392C792.736 137.512 793.314 139.173 793.314 141.376V150H788.946V142.048C788.946 140.853 788.685 139.967 788.162 139.388C787.64 138.791 786.884 138.492 785.894 138.492C784.793 138.492 783.916 138.837 783.262 139.528C782.609 140.2 782.282 141.208 782.282 142.552V150H777.914V134.936H782.086V136.7C782.665 136.065 783.384 135.58 784.242 135.244C785.101 134.889 786.044 134.712 787.07 134.712ZM812.912 129.224V150H808.74V148.264C807.658 149.571 806.09 150.224 804.036 150.224C802.618 150.224 801.33 149.907 800.172 149.272C799.034 148.637 798.138 147.732 797.484 146.556C796.831 145.38 796.504 144.017 796.504 142.468C796.504 140.919 796.831 139.556 797.484 138.38C798.138 137.204 799.034 136.299 800.172 135.664C801.33 135.029 802.618 134.712 804.036 134.712C805.959 134.712 807.462 135.319 808.544 136.532V129.224H812.912ZM804.792 146.64C805.894 146.64 806.808 146.267 807.536 145.52C808.264 144.755 808.628 143.737 808.628 142.468C808.628 141.199 808.264 140.191 807.536 139.444C806.808 138.679 805.894 138.296 804.792 138.296C803.672 138.296 802.748 138.679 802.02 139.444C801.292 140.191 800.928 141.199 800.928 142.468C800.928 143.737 801.292 144.755 802.02 145.52C802.748 146.267 803.672 146.64 804.792 146.64ZM840.686 134.936V147.48C840.686 150.243 839.967 152.296 838.53 153.64C837.093 154.984 834.993 155.656 832.23 155.656C830.774 155.656 829.393 155.479 828.086 155.124C826.779 154.769 825.697 154.256 824.838 153.584L826.574 150.448C827.209 150.971 828.011 151.381 828.982 151.68C829.953 151.997 830.923 152.156 831.894 152.156C833.406 152.156 834.517 151.811 835.226 151.12C835.954 150.448 836.318 149.421 836.318 148.04V147.396C835.179 148.647 833.593 149.272 831.558 149.272C830.177 149.272 828.907 148.973 827.75 148.376C826.611 147.76 825.706 146.901 825.034 145.8C824.362 144.699 824.026 143.429 824.026 141.992C824.026 140.555 824.362 139.285 825.034 138.184C825.706 137.083 826.611 136.233 827.75 135.636C828.907 135.02 830.177 134.712 831.558 134.712C833.742 134.712 835.403 135.431 836.542 136.868V134.936H840.686ZM832.426 145.688C833.583 145.688 834.526 145.352 835.254 144.68C836.001 143.989 836.374 143.093 836.374 141.992C836.374 140.891 836.001 140.004 835.254 139.332C834.526 138.641 833.583 138.296 832.426 138.296C831.269 138.296 830.317 138.641 829.57 139.332C828.823 140.004 828.45 140.891 828.45 141.992C828.45 143.093 828.823 143.989 829.57 144.68C830.317 145.352 831.269 145.688 832.426 145.688ZM859.638 142.524C859.638 142.58 859.61 142.972 859.554 143.7H848.158C848.363 144.633 848.849 145.371 849.614 145.912C850.379 146.453 851.331 146.724 852.47 146.724C853.254 146.724 853.945 146.612 854.542 146.388C855.158 146.145 855.727 145.772 856.25 145.268L858.574 147.788C857.155 149.412 855.083 150.224 852.358 150.224C850.659 150.224 849.157 149.897 847.85 149.244C846.543 148.572 845.535 147.648 844.826 146.472C844.117 145.296 843.762 143.961 843.762 142.468C843.762 140.993 844.107 139.668 844.798 138.492C845.507 137.297 846.469 136.373 847.682 135.72C848.914 135.048 850.286 134.712 851.798 134.712C853.273 134.712 854.607 135.029 855.802 135.664C856.997 136.299 857.93 137.213 858.602 138.408C859.293 139.584 859.638 140.956 859.638 142.524ZM851.826 138.016C850.837 138.016 850.006 138.296 849.334 138.856C848.662 139.416 848.251 140.181 848.102 141.152H855.522C855.373 140.2 854.962 139.444 854.29 138.884C853.618 138.305 852.797 138.016 851.826 138.016ZM872.392 149.272C871.963 149.589 871.431 149.832 870.796 150C870.18 150.149 869.527 150.224 868.836 150.224C867.044 150.224 865.654 149.767 864.664 148.852C863.694 147.937 863.208 146.593 863.208 144.82V138.632H860.884V135.272H863.208V131.604H867.576V135.272H871.328V138.632H867.576V144.764C867.576 145.399 867.735 145.893 868.052 146.248C868.388 146.584 868.855 146.752 869.452 146.752C870.143 146.752 870.731 146.565 871.216 146.192L872.392 149.272ZM891.939 134.712C893.339 134.712 894.608 135.039 895.747 135.692C896.904 136.327 897.81 137.232 898.463 138.408C899.116 139.565 899.443 140.919 899.443 142.468C899.443 144.017 899.116 145.38 898.463 146.556C897.81 147.713 896.904 148.619 895.747 149.272C894.608 149.907 893.339 150.224 891.939 150.224C890.016 150.224 888.504 149.617 887.403 148.404V155.432H883.035V134.936H887.207V136.672C888.29 135.365 889.867 134.712 891.939 134.712ZM891.183 146.64C892.303 146.64 893.218 146.267 893.927 145.52C894.655 144.755 895.019 143.737 895.019 142.468C895.019 141.199 894.655 140.191 893.927 139.444C893.218 138.679 892.303 138.296 891.183 138.296C890.063 138.296 889.139 138.679 888.411 139.444C887.702 140.191 887.347 141.199 887.347 142.468C887.347 143.737 887.702 144.755 888.411 145.52C889.139 146.267 890.063 146.64 891.183 146.64ZM906.67 136.924C907.192 136.196 907.892 135.645 908.77 135.272C909.666 134.899 910.692 134.712 911.85 134.712V138.744C911.364 138.707 911.038 138.688 910.87 138.688C909.619 138.688 908.639 139.043 907.93 139.752C907.22 140.443 906.866 141.488 906.866 142.888V150H902.498V134.936H906.67V136.924ZM929.197 142.524C929.197 142.58 929.169 142.972 929.113 143.7H917.717C917.922 144.633 918.407 145.371 919.173 145.912C919.938 146.453 920.89 146.724 922.029 146.724C922.813 146.724 923.503 146.612 924.101 146.388C924.717 146.145 925.286 145.772 925.809 145.268L928.133 147.788C926.714 149.412 924.642 150.224 921.917 150.224C920.218 150.224 918.715 149.897 917.409 149.244C916.102 148.572 915.094 147.648 914.385 146.472C913.675 145.296 913.321 143.961 913.321 142.468C913.321 140.993 913.666 139.668 914.357 138.492C915.066 137.297 916.027 136.373 917.241 135.72C918.473 135.048 919.845 134.712 921.357 134.712C922.831 134.712 924.166 135.029 925.361 135.664C926.555 136.299 927.489 137.213 928.161 138.408C928.851 139.584 929.197 140.956 929.197 142.524ZM921.385 138.016C920.395 138.016 919.565 138.296 918.893 138.856C918.221 139.416 917.81 140.181 917.661 141.152H925.081C924.931 140.2 924.521 139.444 923.849 138.884C923.177 138.305 922.355 138.016 921.385 138.016ZM932.235 129.224H936.603V150H932.235V129.224ZM946.864 134.712C949.197 134.712 950.989 135.272 952.24 136.392C953.49 137.493 954.116 139.164 954.116 141.404V150H950.028V148.124C949.206 149.524 947.676 150.224 945.436 150.224C944.278 150.224 943.27 150.028 942.412 149.636C941.572 149.244 940.928 148.703 940.48 148.012C940.032 147.321 939.808 146.537 939.808 145.66C939.808 144.26 940.33 143.159 941.376 142.356C942.44 141.553 944.073 141.152 946.276 141.152H949.748C949.748 140.2 949.458 139.472 948.88 138.968C948.301 138.445 947.433 138.184 946.276 138.184C945.473 138.184 944.68 138.315 943.896 138.576C943.13 138.819 942.477 139.155 941.936 139.584L940.368 136.532C941.189 135.953 942.169 135.505 943.308 135.188C944.465 134.871 945.65 134.712 946.864 134.712ZM946.528 147.284C947.274 147.284 947.937 147.116 948.516 146.78C949.094 146.425 949.505 145.912 949.748 145.24V143.7H946.752C944.96 143.7 944.064 144.288 944.064 145.464C944.064 146.024 944.278 146.472 944.708 146.808C945.156 147.125 945.762 147.284 946.528 147.284ZM973.375 134.936V150H969.231V148.208C968.653 148.861 967.962 149.365 967.159 149.72C966.357 150.056 965.489 150.224 964.555 150.224C962.577 150.224 961.009 149.655 959.851 148.516C958.694 147.377 958.115 145.688 958.115 143.448V134.936H962.483V142.804C962.483 145.231 963.501 146.444 965.535 146.444C966.581 146.444 967.421 146.108 968.055 145.436C968.69 144.745 969.007 143.728 969.007 142.384V134.936H973.375ZM986.709 134.712C988.575 134.712 990.078 135.272 991.217 136.392C992.374 137.512 992.953 139.173 992.953 141.376V150H988.585V142.048C988.585 140.853 988.323 139.967 987.801 139.388C987.278 138.791 986.522 138.492 985.533 138.492C984.431 138.492 983.554 138.837 982.901 139.528C982.247 140.2 981.921 141.208 981.921 142.552V150H977.553V134.936H981.725V136.7C982.303 136.065 983.022 135.58 983.881 135.244C984.739 134.889 985.682 134.712 986.709 134.712ZM1004.49 150.224C1002.88 150.224 1001.43 149.897 1000.15 149.244C998.877 148.572 997.879 147.648 997.151 146.472C996.441 145.296 996.087 143.961 996.087 142.468C996.087 140.975 996.441 139.64 997.151 138.464C997.879 137.288 998.877 136.373 1000.15 135.72C1001.43 135.048 1002.88 134.712 1004.49 134.712C1006.07 134.712 1007.45 135.048 1008.63 135.72C1009.83 136.373 1010.69 137.316 1011.23 138.548L1007.85 140.368C1007.06 138.987 1005.93 138.296 1004.46 138.296C1003.32 138.296 1002.38 138.669 1001.63 139.416C1000.88 140.163 1000.51 141.18 1000.51 142.468C1000.51 143.756 1000.88 144.773 1001.63 145.52C1002.38 146.267 1003.32 146.64 1004.46 146.64C1005.95 146.64 1007.08 145.949 1007.85 144.568L1011.23 146.416C1010.69 147.611 1009.83 148.544 1008.63 149.216C1007.45 149.888 1006.07 150.224 1004.49 150.224ZM1022.93 134.712C1024.79 134.712 1026.3 135.272 1027.43 136.392C1028.59 137.512 1029.17 139.173 1029.17 141.376V150H1024.8V142.048C1024.8 140.853 1024.54 139.967 1024.02 139.388C1023.5 138.791 1022.74 138.492 1021.75 138.492C1020.65 138.492 1019.77 138.837 1019.12 139.528C1018.47 140.2 1018.14 141.208 1018.14 142.552V150H1013.77V129.224H1018.14V136.504C1018.72 135.925 1019.42 135.487 1020.24 135.188C1021.06 134.871 1021.96 134.712 1022.93 134.712ZM1050.22 134.712C1051.62 134.712 1052.89 135.039 1054.03 135.692C1055.19 136.327 1056.1 137.232 1056.75 138.408C1057.4 139.565 1057.73 140.919 1057.73 142.468C1057.73 144.017 1057.4 145.38 1056.75 146.556C1056.1 147.713 1055.19 148.619 1054.03 149.272C1052.89 149.907 1051.62 150.224 1050.22 150.224C1048.15 150.224 1046.58 149.571 1045.49 148.264V150H1041.32V129.224H1045.69V136.532C1046.79 135.319 1048.3 134.712 1050.22 134.712ZM1049.47 146.64C1050.59 146.64 1051.5 146.267 1052.21 145.52C1052.94 144.755 1053.3 143.737 1053.3 142.468C1053.3 141.199 1052.94 140.191 1052.21 139.444C1051.5 138.679 1050.59 138.296 1049.47 138.296C1048.35 138.296 1047.42 138.679 1046.7 139.444C1045.99 140.191 1045.63 141.199 1045.63 142.468C1045.63 143.737 1045.99 144.755 1046.7 145.52C1047.42 146.267 1048.35 146.64 1049.47 146.64ZM1067.95 150.224C1066.36 150.224 1064.94 149.897 1063.67 149.244C1062.42 148.572 1061.44 147.648 1060.73 146.472C1060.02 145.296 1059.66 143.961 1059.66 142.468C1059.66 140.975 1060.02 139.64 1060.73 138.464C1061.44 137.288 1062.42 136.373 1063.67 135.72C1064.94 135.048 1066.36 134.712 1067.95 134.712C1069.54 134.712 1070.96 135.048 1072.21 135.72C1073.46 136.373 1074.44 137.288 1075.15 138.464C1075.86 139.64 1076.21 140.975 1076.21 142.468C1076.21 143.961 1075.86 145.296 1075.15 146.472C1074.44 147.648 1073.46 148.572 1072.21 149.244C1070.96 149.897 1069.54 150.224 1067.95 150.224ZM1067.95 146.64C1069.07 146.64 1069.99 146.267 1070.7 145.52C1071.42 144.755 1071.79 143.737 1071.79 142.468C1071.79 141.199 1071.42 140.191 1070.7 139.444C1069.99 138.679 1069.07 138.296 1067.95 138.296C1066.83 138.296 1065.91 138.679 1065.18 139.444C1064.45 140.191 1064.09 141.199 1064.09 142.468C1064.09 143.737 1064.45 144.755 1065.18 145.52C1065.91 146.267 1066.83 146.64 1067.95 146.64ZM1088.42 134.712C1090.28 134.712 1091.79 135.272 1092.93 136.392C1094.08 137.512 1094.66 139.173 1094.66 141.376V150H1090.29V142.048C1090.29 140.853 1090.03 139.967 1089.51 139.388C1088.99 138.791 1088.23 138.492 1087.24 138.492C1086.14 138.492 1085.26 138.837 1084.61 139.528C1083.96 140.2 1083.63 141.208 1083.63 142.552V150H1079.26V134.936H1083.43V136.7C1084.01 136.065 1084.73 135.58 1085.59 135.244C1086.45 134.889 1087.39 134.712 1088.42 134.712ZM1113.93 134.936V150H1109.78V148.208C1109.2 148.861 1108.51 149.365 1107.71 149.72C1106.91 150.056 1106.04 150.224 1105.11 150.224C1103.13 150.224 1101.56 149.655 1100.4 148.516C1099.25 147.377 1098.67 145.688 1098.67 143.448V134.936H1103.04V142.804C1103.04 145.231 1104.05 146.444 1106.09 146.444C1107.13 146.444 1107.97 146.108 1108.61 145.436C1109.24 144.745 1109.56 143.728 1109.56 142.384V134.936H1113.93ZM1123.17 150.224C1121.92 150.224 1120.7 150.075 1119.5 149.776C1118.31 149.459 1117.36 149.067 1116.65 148.6L1118.1 145.464C1118.78 145.893 1119.59 146.248 1120.54 146.528C1121.49 146.789 1122.43 146.92 1123.34 146.92C1125.19 146.92 1126.11 146.463 1126.11 145.548C1126.11 145.119 1125.86 144.811 1125.36 144.624C1124.85 144.437 1124.08 144.279 1123.03 144.148C1121.8 143.961 1120.78 143.747 1119.98 143.504C1119.18 143.261 1118.48 142.832 1117.88 142.216C1117.3 141.6 1117.01 140.723 1117.01 139.584C1117.01 138.632 1117.28 137.792 1117.82 137.064C1118.38 136.317 1119.19 135.739 1120.23 135.328C1121.3 134.917 1122.55 134.712 1123.98 134.712C1125.05 134.712 1126.1 134.833 1127.15 135.076C1128.21 135.3 1129.09 135.617 1129.78 136.028L1128.32 139.136C1127 138.389 1125.55 138.016 1123.98 138.016C1123.05 138.016 1122.35 138.147 1121.88 138.408C1121.42 138.669 1121.18 139.005 1121.18 139.416C1121.18 139.883 1121.44 140.209 1121.94 140.396C1122.44 140.583 1123.25 140.76 1124.35 140.928C1125.58 141.133 1126.59 141.357 1127.37 141.6C1128.16 141.824 1128.84 142.244 1129.42 142.86C1130 143.476 1130.28 144.335 1130.28 145.436C1130.28 146.369 1130 147.2 1129.44 147.928C1128.88 148.656 1128.06 149.225 1126.98 149.636C1125.92 150.028 1124.65 150.224 1123.17 150.224ZM1134.76 150.224C1134 150.224 1133.35 149.963 1132.83 149.44C1132.31 148.917 1132.05 148.264 1132.05 147.48C1132.05 146.677 1132.31 146.033 1132.83 145.548C1133.35 145.044 1134 144.792 1134.76 144.792C1135.53 144.792 1136.17 145.044 1136.69 145.548C1137.22 146.033 1137.48 146.677 1137.48 147.48C1137.48 148.264 1137.22 148.917 1136.69 149.44C1136.17 149.963 1135.53 150.224 1134.76 150.224ZM374.276 194.336C372.241 194.336 370.403 193.897 368.76 193.02C367.136 192.143 365.857 190.939 364.924 189.408C364.009 187.859 363.552 186.123 363.552 184.2C363.552 182.277 364.009 180.551 364.924 179.02C365.857 177.471 367.136 176.257 368.76 175.38C370.403 174.503 372.241 174.064 374.276 174.064C376.311 174.064 378.14 174.503 379.764 175.38C381.388 176.257 382.667 177.471 383.6 179.02C384.533 180.551 385 182.277 385 184.2C385 186.123 384.533 187.859 383.6 189.408C382.667 190.939 381.388 192.143 379.764 193.02C378.14 193.897 376.311 194.336 374.276 194.336ZM374.276 190.472C375.433 190.472 376.479 190.211 377.412 189.688C378.345 189.147 379.073 188.4 379.596 187.448C380.137 186.496 380.408 185.413 380.408 184.2C380.408 182.987 380.137 181.904 379.596 180.952C379.073 180 378.345 179.263 377.412 178.74C376.479 178.199 375.433 177.928 374.276 177.928C373.119 177.928 372.073 178.199 371.14 178.74C370.207 179.263 369.469 180 368.928 180.952C368.405 181.904 368.144 182.987 368.144 184.2C368.144 185.413 368.405 186.496 368.928 187.448C369.469 188.4 370.207 189.147 371.14 189.688C372.073 190.211 373.119 190.472 374.276 190.472ZM403.407 178.936V194H399.263V192.208C398.685 192.861 397.994 193.365 397.191 193.72C396.389 194.056 395.521 194.224 394.587 194.224C392.609 194.224 391.041 193.655 389.883 192.516C388.726 191.377 388.147 189.688 388.147 187.448V178.936H392.515V186.804C392.515 189.231 393.533 190.444 395.567 190.444C396.613 190.444 397.453 190.108 398.087 189.436C398.722 188.745 399.039 187.728 399.039 186.384V178.936H403.407ZM411.757 180.924C412.279 180.196 412.979 179.645 413.857 179.272C414.753 178.899 415.779 178.712 416.937 178.712V182.744C416.451 182.707 416.125 182.688 415.957 182.688C414.706 182.688 413.726 183.043 413.017 183.752C412.307 184.443 411.953 185.488 411.953 186.888V194H407.585V178.936H411.757V180.924ZM436.738 178.712C438.138 178.712 439.407 179.039 440.546 179.692C441.703 180.327 442.609 181.232 443.262 182.408C443.915 183.565 444.242 184.919 444.242 186.468C444.242 188.017 443.915 189.38 443.262 190.556C442.609 191.713 441.703 192.619 440.546 193.272C439.407 193.907 438.138 194.224 436.738 194.224C434.815 194.224 433.303 193.617 432.202 192.404V199.432H427.834V178.936H432.006V180.672C433.089 179.365 434.666 178.712 436.738 178.712ZM435.982 190.64C437.102 190.64 438.017 190.267 438.726 189.52C439.454 188.755 439.818 187.737 439.818 186.468C439.818 185.199 439.454 184.191 438.726 183.444C438.017 182.679 437.102 182.296 435.982 182.296C434.862 182.296 433.938 182.679 433.21 183.444C432.501 184.191 432.146 185.199 432.146 186.468C432.146 187.737 432.501 188.755 433.21 189.52C433.938 190.267 434.862 190.64 435.982 190.64ZM451.469 180.924C451.991 180.196 452.691 179.645 453.569 179.272C454.465 178.899 455.491 178.712 456.649 178.712V182.744C456.163 182.707 455.837 182.688 455.669 182.688C454.418 182.688 453.438 183.043 452.729 183.752C452.019 184.443 451.665 185.488 451.665 186.888V194H447.297V178.936H451.469V180.924ZM466.408 194.224C464.821 194.224 463.393 193.897 462.124 193.244C460.873 192.572 459.893 191.648 459.184 190.472C458.474 189.296 458.12 187.961 458.12 186.468C458.12 184.975 458.474 183.64 459.184 182.464C459.893 181.288 460.873 180.373 462.124 179.72C463.393 179.048 464.821 178.712 466.408 178.712C467.994 178.712 469.413 179.048 470.664 179.72C471.914 180.373 472.894 181.288 473.604 182.464C474.313 183.64 474.668 184.975 474.668 186.468C474.668 187.961 474.313 189.296 473.604 190.472C472.894 191.648 471.914 192.572 470.664 193.244C469.413 193.897 467.994 194.224 466.408 194.224ZM466.408 190.64C467.528 190.64 468.442 190.267 469.152 189.52C469.88 188.755 470.244 187.737 470.244 186.468C470.244 185.199 469.88 184.191 469.152 183.444C468.442 182.679 467.528 182.296 466.408 182.296C465.288 182.296 464.364 182.679 463.636 183.444C462.908 184.191 462.544 185.199 462.544 186.468C462.544 187.737 462.908 188.755 463.636 189.52C464.364 190.267 465.288 190.64 466.408 190.64ZM493.062 173.224V194H488.89V192.264C487.807 193.571 486.239 194.224 484.186 194.224C482.767 194.224 481.479 193.907 480.322 193.272C479.183 192.637 478.287 191.732 477.634 190.556C476.98 189.38 476.654 188.017 476.654 186.468C476.654 184.919 476.98 183.556 477.634 182.38C478.287 181.204 479.183 180.299 480.322 179.664C481.479 179.029 482.767 178.712 484.186 178.712C486.108 178.712 487.611 179.319 488.694 180.532V173.224H493.062ZM484.942 190.64C486.043 190.64 486.958 190.267 487.686 189.52C488.414 188.755 488.778 187.737 488.778 186.468C488.778 185.199 488.414 184.191 487.686 183.444C486.958 182.679 486.043 182.296 484.942 182.296C483.822 182.296 482.898 182.679 482.17 183.444C481.442 184.191 481.078 185.199 481.078 186.468C481.078 187.737 481.442 188.755 482.17 189.52C482.898 190.267 483.822 190.64 484.942 190.64ZM512.411 178.936V194H508.267V192.208C507.688 192.861 506.998 193.365 506.195 193.72C505.392 194.056 504.524 194.224 503.591 194.224C501.612 194.224 500.044 193.655 498.887 192.516C497.73 191.377 497.151 189.688 497.151 187.448V178.936H501.519V186.804C501.519 189.231 502.536 190.444 504.571 190.444C505.616 190.444 506.456 190.108 507.091 189.436C507.726 188.745 508.043 187.728 508.043 186.384V178.936H512.411ZM523.868 194.224C522.263 194.224 520.816 193.897 519.528 193.244C518.259 192.572 517.26 191.648 516.532 190.472C515.823 189.296 515.468 187.961 515.468 186.468C515.468 184.975 515.823 183.64 516.532 182.464C517.26 181.288 518.259 180.373 519.528 179.72C520.816 179.048 522.263 178.712 523.868 178.712C525.455 178.712 526.836 179.048 528.012 179.72C529.207 180.373 530.075 181.316 530.616 182.548L527.228 184.368C526.444 182.987 525.315 182.296 523.84 182.296C522.701 182.296 521.759 182.669 521.012 183.416C520.265 184.163 519.892 185.18 519.892 186.468C519.892 187.756 520.265 188.773 521.012 189.52C521.759 190.267 522.701 190.64 523.84 190.64C525.333 190.64 526.463 189.949 527.228 188.568L530.616 190.416C530.075 191.611 529.207 192.544 528.012 193.216C526.836 193.888 525.455 194.224 523.868 194.224ZM543.196 193.272C542.767 193.589 542.235 193.832 541.6 194C540.984 194.149 540.331 194.224 539.64 194.224C537.848 194.224 536.458 193.767 535.468 192.852C534.498 191.937 534.012 190.593 534.012 188.82V182.632H531.688V179.272H534.012V175.604H538.38V179.272H542.132V182.632H538.38V188.764C538.38 189.399 538.539 189.893 538.856 190.248C539.192 190.584 539.659 190.752 540.256 190.752C540.947 190.752 541.535 190.565 542.02 190.192L543.196 193.272ZM578.031 178.936L572.571 194H568.371L564.983 184.648L561.483 194H557.283L551.851 178.936H555.967L559.523 189.128L563.219 178.936H566.915L570.499 189.128L574.167 178.936H578.031ZM580.192 178.936H584.56V194H580.192V178.936ZM582.376 176.836C581.574 176.836 580.92 176.603 580.416 176.136C579.912 175.669 579.66 175.091 579.66 174.4C579.66 173.709 579.912 173.131 580.416 172.664C580.92 172.197 581.574 171.964 582.376 171.964C583.179 171.964 583.832 172.188 584.336 172.636C584.84 173.084 585.092 173.644 585.092 174.316C585.092 175.044 584.84 175.651 584.336 176.136C583.832 176.603 583.179 176.836 582.376 176.836ZM588.745 173.224H593.113V194H588.745V173.224ZM597.297 173.224H601.665V194H597.297V173.224ZM618.978 194.224C617.727 194.224 616.504 194.075 615.31 193.776C614.115 193.459 613.163 193.067 612.454 192.6L613.91 189.464C614.582 189.893 615.394 190.248 616.346 190.528C617.298 190.789 618.231 190.92 619.146 190.92C620.994 190.92 621.918 190.463 621.918 189.548C621.918 189.119 621.666 188.811 621.162 188.624C620.658 188.437 619.883 188.279 618.838 188.148C617.606 187.961 616.588 187.747 615.786 187.504C614.983 187.261 614.283 186.832 613.686 186.216C613.107 185.6 612.818 184.723 612.818 183.584C612.818 182.632 613.088 181.792 613.63 181.064C614.19 180.317 614.992 179.739 616.038 179.328C617.102 178.917 618.352 178.712 619.79 178.712C620.854 178.712 621.908 178.833 622.954 179.076C624.018 179.3 624.895 179.617 625.586 180.028L624.13 183.136C622.804 182.389 621.358 182.016 619.79 182.016C618.856 182.016 618.156 182.147 617.69 182.408C617.223 182.669 616.99 183.005 616.99 183.416C616.99 183.883 617.242 184.209 617.746 184.396C618.25 184.583 619.052 184.76 620.154 184.928C621.386 185.133 622.394 185.357 623.178 185.6C623.962 185.824 624.643 186.244 625.222 186.86C625.8 187.476 626.09 188.335 626.09 189.436C626.09 190.369 625.81 191.2 625.25 191.928C624.69 192.656 623.868 193.225 622.786 193.636C621.722 194.028 620.452 194.224 618.978 194.224ZM636.083 194.224C634.496 194.224 633.068 193.897 631.799 193.244C630.548 192.572 629.568 191.648 628.859 190.472C628.15 189.296 627.795 187.961 627.795 186.468C627.795 184.975 628.15 183.64 628.859 182.464C629.568 181.288 630.548 180.373 631.799 179.72C633.068 179.048 634.496 178.712 636.083 178.712C637.67 178.712 639.088 179.048 640.339 179.72C641.59 180.373 642.57 181.288 643.279 182.464C643.988 183.64 644.343 184.975 644.343 186.468C644.343 187.961 643.988 189.296 643.279 190.472C642.57 191.648 641.59 192.572 640.339 193.244C639.088 193.897 637.67 194.224 636.083 194.224ZM636.083 190.64C637.203 190.64 638.118 190.267 638.827 189.52C639.555 188.755 639.919 187.737 639.919 186.468C639.919 185.199 639.555 184.191 638.827 183.444C638.118 182.679 637.203 182.296 636.083 182.296C634.963 182.296 634.039 182.679 633.311 183.444C632.583 184.191 632.219 185.199 632.219 186.468C632.219 187.737 632.583 188.755 633.311 189.52C634.039 190.267 634.963 190.64 636.083 190.64ZM654.561 194.224C652.975 194.224 651.547 193.897 650.277 193.244C649.027 192.572 648.047 191.648 647.337 190.472C646.628 189.296 646.273 187.961 646.273 186.468C646.273 184.975 646.628 183.64 647.337 182.464C648.047 181.288 649.027 180.373 650.277 179.72C651.547 179.048 652.975 178.712 654.561 178.712C656.148 178.712 657.567 179.048 658.817 179.72C660.068 180.373 661.048 181.288 661.757 182.464C662.467 183.64 662.821 184.975 662.821 186.468C662.821 187.961 662.467 189.296 661.757 190.472C661.048 191.648 660.068 192.572 658.817 193.244C657.567 193.897 656.148 194.224 654.561 194.224ZM654.561 190.64C655.681 190.64 656.596 190.267 657.305 189.52C658.033 188.755 658.397 187.737 658.397 186.468C658.397 185.199 658.033 184.191 657.305 183.444C656.596 182.679 655.681 182.296 654.561 182.296C653.441 182.296 652.517 182.679 651.789 183.444C651.061 184.191 650.697 185.199 650.697 186.468C650.697 187.737 651.061 188.755 651.789 189.52C652.517 190.267 653.441 190.64 654.561 190.64ZM675.027 178.712C676.894 178.712 678.397 179.272 679.535 180.392C680.693 181.512 681.271 183.173 681.271 185.376V194H676.903V186.048C676.903 184.853 676.642 183.967 676.119 183.388C675.597 182.791 674.841 182.492 673.851 182.492C672.75 182.492 671.873 182.837 671.219 183.528C670.566 184.2 670.239 185.208 670.239 186.552V194H665.871V178.936H670.043V180.7C670.622 180.065 671.341 179.58 672.199 179.244C673.058 178.889 674.001 178.712 675.027 178.712ZM693.422 173.224H697.79V194H693.422V173.224ZM708.05 178.712C710.383 178.712 712.175 179.272 713.426 180.392C714.677 181.493 715.302 183.164 715.302 185.404V194H711.214V192.124C710.393 193.524 708.862 194.224 706.622 194.224C705.465 194.224 704.457 194.028 703.598 193.636C702.758 193.244 702.114 192.703 701.666 192.012C701.218 191.321 700.994 190.537 700.994 189.66C700.994 188.26 701.517 187.159 702.562 186.356C703.626 185.553 705.259 185.152 707.462 185.152H710.934C710.934 184.2 710.645 183.472 710.066 182.968C709.487 182.445 708.619 182.184 707.462 182.184C706.659 182.184 705.866 182.315 705.082 182.576C704.317 182.819 703.663 183.155 703.122 183.584L701.554 180.532C702.375 179.953 703.355 179.505 704.494 179.188C705.651 178.871 706.837 178.712 708.05 178.712ZM707.714 191.284C708.461 191.284 709.123 191.116 709.702 190.78C710.281 190.425 710.691 189.912 710.934 189.24V187.7H707.938C706.146 187.7 705.25 188.288 705.25 189.464C705.25 190.024 705.465 190.472 705.894 190.808C706.342 191.125 706.949 191.284 707.714 191.284ZM734.562 178.936V194H730.418V192.208C729.839 192.861 729.148 193.365 728.346 193.72C727.543 194.056 726.675 194.224 725.742 194.224C723.763 194.224 722.195 193.655 721.038 192.516C719.88 191.377 719.302 189.688 719.302 187.448V178.936H723.67V186.804C723.67 189.231 724.687 190.444 726.722 190.444C727.767 190.444 728.607 190.108 729.242 189.436C729.876 188.745 730.194 187.728 730.194 186.384V178.936H734.562ZM747.895 178.712C749.762 178.712 751.264 179.272 752.403 180.392C753.56 181.512 754.139 183.173 754.139 185.376V194H749.771V186.048C749.771 184.853 749.51 183.967 748.987 183.388C748.464 182.791 747.708 182.492 746.719 182.492C745.618 182.492 744.74 182.837 744.087 183.528C743.434 184.2 743.107 185.208 743.107 186.552V194H738.739V178.936H742.911V180.7C743.49 180.065 744.208 179.58 745.067 179.244C745.926 178.889 746.868 178.712 747.895 178.712ZM765.673 194.224C764.067 194.224 762.621 193.897 761.333 193.244C760.063 192.572 759.065 191.648 758.337 190.472C757.627 189.296 757.273 187.961 757.273 186.468C757.273 184.975 757.627 183.64 758.337 182.464C759.065 181.288 760.063 180.373 761.333 179.72C762.621 179.048 764.067 178.712 765.673 178.712C767.259 178.712 768.641 179.048 769.817 179.72C771.011 180.373 771.879 181.316 772.421 182.548L769.033 184.368C768.249 182.987 767.119 182.296 765.645 182.296C764.506 182.296 763.563 182.669 762.817 183.416C762.07 184.163 761.697 185.18 761.697 186.468C761.697 187.756 762.07 188.773 762.817 189.52C763.563 190.267 764.506 190.64 765.645 190.64C767.138 190.64 768.267 189.949 769.033 188.568L772.421 190.416C771.879 191.611 771.011 192.544 769.817 193.216C768.641 193.888 767.259 194.224 765.673 194.224ZM784.113 178.712C785.98 178.712 787.482 179.272 788.621 180.392C789.778 181.512 790.357 183.173 790.357 185.376V194H785.989V186.048C785.989 184.853 785.728 183.967 785.205 183.388C784.682 182.791 783.926 182.492 782.937 182.492C781.836 182.492 780.958 182.837 780.305 183.528C779.652 184.2 779.325 185.208 779.325 186.552V194H774.957V173.224H779.325V180.504C779.904 179.925 780.604 179.487 781.425 179.188C782.246 178.871 783.142 178.712 784.113 178.712ZM802.507 178.936H806.875V194H802.507V178.936ZM804.691 176.836C803.888 176.836 803.235 176.603 802.731 176.136C802.227 175.669 801.975 175.091 801.975 174.4C801.975 173.709 802.227 173.131 802.731 172.664C803.235 172.197 803.888 171.964 804.691 171.964C805.494 171.964 806.147 172.188 806.651 172.636C807.155 173.084 807.407 173.644 807.407 174.316C807.407 175.044 807.155 175.651 806.651 176.136C806.147 176.603 805.494 176.836 804.691 176.836ZM820.215 178.712C822.082 178.712 823.585 179.272 824.723 180.392C825.881 181.512 826.459 183.173 826.459 185.376V194H822.091V186.048C822.091 184.853 821.83 183.967 821.307 183.388C820.785 182.791 820.029 182.492 819.039 182.492C817.938 182.492 817.061 182.837 816.407 183.528C815.754 184.2 815.427 185.208 815.427 186.552V194H811.059V178.936H815.231V180.7C815.81 180.065 816.529 179.58 817.387 179.244C818.246 178.889 819.189 178.712 820.215 178.712ZM846.058 186.3L843.426 189.044V194H838.918V174.4H843.426V183.556L852.106 174.4H857.146L849.026 183.136L857.622 194H852.33L846.058 186.3ZM866.006 194.224C864.419 194.224 862.991 193.897 861.722 193.244C860.471 192.572 859.491 191.648 858.782 190.472C858.072 189.296 857.718 187.961 857.718 186.468C857.718 184.975 858.072 183.64 858.782 182.464C859.491 181.288 860.471 180.373 861.722 179.72C862.991 179.048 864.419 178.712 866.006 178.712C867.592 178.712 869.011 179.048 870.262 179.72C871.512 180.373 872.492 181.288 873.202 182.464C873.911 183.64 874.266 184.975 874.266 186.468C874.266 187.961 873.911 189.296 873.202 190.472C872.492 191.648 871.512 192.572 870.262 193.244C869.011 193.897 867.592 194.224 866.006 194.224ZM866.006 190.64C867.126 190.64 868.04 190.267 868.75 189.52C869.478 188.755 869.842 187.737 869.842 186.468C869.842 185.199 869.478 184.191 868.75 183.444C868.04 182.679 867.126 182.296 866.006 182.296C864.886 182.296 863.962 182.679 863.234 183.444C862.506 184.191 862.142 185.199 862.142 186.468C862.142 187.737 862.506 188.755 863.234 189.52C863.962 190.267 864.886 190.64 866.006 190.64ZM877.316 173.224H881.684V194H877.316V173.224ZM892.336 188.092L890.236 190.164V194H885.868V173.224H890.236V184.984L896.62 178.936H901.828L895.556 185.32L902.388 194H897.096L892.336 188.092ZM910.286 178.712C912.619 178.712 914.411 179.272 915.662 180.392C916.912 181.493 917.538 183.164 917.538 185.404V194H913.45V192.124C912.628 193.524 911.098 194.224 908.858 194.224C907.7 194.224 906.692 194.028 905.834 193.636C904.994 193.244 904.35 192.703 903.902 192.012C903.454 191.321 903.23 190.537 903.23 189.66C903.23 188.26 903.752 187.159 904.798 186.356C905.862 185.553 907.495 185.152 909.698 185.152H913.17C913.17 184.2 912.88 183.472 912.302 182.968C911.723 182.445 910.855 182.184 909.698 182.184C908.895 182.184 908.102 182.315 907.318 182.576C906.552 182.819 905.899 183.155 905.358 183.584L903.79 180.532C904.611 179.953 905.591 179.505 906.73 179.188C907.887 178.871 909.072 178.712 910.286 178.712ZM909.95 191.284C910.696 191.284 911.359 191.116 911.938 190.78C912.516 190.425 912.927 189.912 913.17 189.24V187.7H910.174C908.382 187.7 907.486 188.288 907.486 189.464C907.486 190.024 907.7 190.472 908.13 190.808C908.578 191.125 909.184 191.284 909.95 191.284ZM931.338 193.272C930.908 193.589 930.376 193.832 929.742 194C929.126 194.149 928.472 194.224 927.782 194.224C925.99 194.224 924.599 193.767 923.61 192.852C922.639 191.937 922.154 190.593 922.154 188.82V182.632H919.83V179.272H922.154V175.604H926.522V179.272H930.274V182.632H926.522V188.764C926.522 189.399 926.68 189.893 926.998 190.248C927.334 190.584 927.8 190.752 928.398 190.752C929.088 190.752 929.676 190.565 930.162 190.192L931.338 193.272ZM939.996 178.712C942.329 178.712 944.121 179.272 945.372 180.392C946.623 181.493 947.248 183.164 947.248 185.404V194H943.16V192.124C942.339 193.524 940.808 194.224 938.568 194.224C937.411 194.224 936.403 194.028 935.544 193.636C934.704 193.244 934.06 192.703 933.612 192.012C933.164 191.321 932.94 190.537 932.94 189.66C932.94 188.26 933.463 187.159 934.508 186.356C935.572 185.553 937.205 185.152 939.408 185.152H942.88C942.88 184.2 942.591 183.472 942.012 182.968C941.433 182.445 940.565 182.184 939.408 182.184C938.605 182.184 937.812 182.315 937.028 182.576C936.263 182.819 935.609 183.155 935.068 183.584L933.5 180.532C934.321 179.953 935.301 179.505 936.44 179.188C937.597 178.871 938.783 178.712 939.996 178.712ZM939.66 191.284C940.407 191.284 941.069 191.116 941.648 190.78C942.227 190.425 942.637 189.912 942.88 189.24V187.7H939.884C938.092 187.7 937.196 188.288 937.196 189.464C937.196 190.024 937.411 190.472 937.84 190.808C938.288 191.125 938.895 191.284 939.66 191.284ZM950.772 174.4H955.98L955.112 187.196H951.64L950.772 174.4ZM953.376 194.224C952.61 194.224 951.966 193.981 951.444 193.496C950.94 192.992 950.688 192.385 950.688 191.676C950.688 190.967 950.94 190.379 951.444 189.912C951.948 189.427 952.592 189.184 953.376 189.184C954.16 189.184 954.804 189.427 955.308 189.912C955.812 190.379 956.064 190.967 956.064 191.676C956.064 192.385 955.802 192.992 955.28 193.496C954.776 193.981 954.141 194.224 953.376 194.224Z" fill="white"/>
<path fill-rule="evenodd" clip-rule="evenodd" d="M1164.5 311.5C1165.33 311.5 1166 312.172 1166 313C1166 313.828 1165.33 314.5 1164.5 314.5C1156.22 314.5 1149.5 321.216 1149.5 329.5C1149.5 330.328 1148.83 331 1148 331C1147.17 331 1146.5 330.328 1146.5 329.5C1146.5 321.216 1139.78 314.5 1131.5 314.5C1130.67 314.5 1130 313.828 1130 313C1130 312.172 1130.67 311.5 1131.5 311.5C1139.78 311.5 1146.5 304.784 1146.5 296.5C1146.5 295.672 1147.17 295 1148 295C1148.83 295 1149.5 295.672 1149.5 296.5C1149.5 304.784 1156.22 311.5 1164.5 311.5Z" fill="white"/>
<path fill-rule="evenodd" clip-rule="evenodd" d="M1068.08 272.083C1068.59 272.083 1069 272.494 1069 273C1069 273.506 1068.59 273.917 1068.08 273.917C1063.02 273.917 1058.92 278.021 1058.92 283.083C1058.92 283.59 1058.51 284 1058 284C1057.49 284 1057.08 283.59 1057.08 283.083C1057.08 278.021 1052.98 273.917 1047.92 273.917C1047.41 273.917 1047 273.506 1047 273C1047 272.494 1047.41 272.083 1047.92 272.083C1052.98 272.083 1057.08 267.979 1057.08 262.917C1057.08 262.41 1057.49 262 1058 262C1058.51 262 1058.92 262.41 1058.92 262.917C1058.92 267.979 1063.02 272.083 1068.08 272.083Z" fill="white"/>
<path fill-rule="evenodd" clip-rule="evenodd" d="M1023.46 301.958C1023.76 301.958 1024 302.201 1024 302.5C1024 302.799 1023.76 303.042 1023.46 303.042C1020.47 303.042 1018.04 305.467 1018.04 308.458C1018.04 308.757 1017.8 309 1017.5 309C1017.2 309 1016.96 308.757 1016.96 308.458C1016.96 305.467 1014.53 303.042 1011.54 303.042C1011.24 303.042 1011 302.799 1011 302.5C1011 302.201 1011.24 301.958 1011.54 301.958C1014.53 301.958 1016.96 299.533 1016.96 296.542C1016.96 296.243 1017.2 296 1017.5 296C1017.8 296 1018.04 296.243 1018.04 296.542C1018.04 299.533 1020.47 301.958 1023.46 301.958Z" fill="white"/>
<defs>
<filter id="filter0_d" x="0" y="0" width="1320" height="504" filterUnits="userSpaceOnUse" color-interpolation-filters="sRGB">
<feFlood flood-opacity="0" result="BackgroundImageFix"/>
<feColorMatrix in="SourceAlpha" type="matrix" values="0 0 0 0 0 0 0 0 0 0 0 0 0 0 0 0 0 0 127 0"/>
<feOffset dy="40"/>
<feGaussianBlur stdDeviation="40"/>
<feColorMatrix type="matrix" values="0 0 0 0 0.329412 0 0 0 0 0.34902 0 0 0 0 1 0 0 0 0.198235 0"/>
<feBlend mode="normal" in2="BackgroundImageFix" result="effect1_dropShadow"/>
<feBlend mode="normal" in="SourceGraphic" in2="effect1_dropShadow" result="shape"/>
</filter>
<filter id="filter1_d" x="186" y="285" width="180" height="160" filterUnits="userSpaceOnUse" color-interpolation-filters="sRGB">
<feFlood flood-opacity="0" result="BackgroundImageFix"/>
<feColorMatrix in="SourceAlpha" type="matrix" values="0 0 0 0 0 0 0 0 0 0 0 0 0 0 0 0 0 0 127 0"/>
<feOffset dy="12"/>
<feGaussianBlur stdDeviation="20"/>
<feColorMatrix type="matrix" values="0 0 0 0 0.302572 0 0 0 0 0.394761 0 0 0 0 1 0 0 0 1 0"/>
<feBlend mode="normal" in2="BackgroundImageFix" result="effect1_dropShadow"/>
<feBlend mode="normal" in="SourceGraphic" in2="effect1_dropShadow" result="shape"/>
</filter>
<filter id="filter2_d" x="110.657" y="205.657" width="203.966" height="203.966" filterUnits="userSpaceOnUse" color-interpolation-filters="sRGB">
<feFlood flood-opacity="0" result="BackgroundImageFix"/>
<feColorMatrix in="SourceAlpha" type="matrix" values="0 0 0 0 0 0 0 0 0 0 0 0 0 0 0 0 0 0 127 0"/>
<feOffset dx="12" dy="12"/>
<feGaussianBlur stdDeviation="20"/>
<feColorMatrix type="matrix" values="0 0 0 0 0 0 0 0 0 0.275281 0 0 0 0 1 0 0 0 0.315095 0"/>
<feBlend mode="normal" in2="BackgroundImageFix" result="effect1_dropShadow"/>
<feBlend mode="normal" in="SourceGraphic" in2="effect1_dropShadow" result="shape"/>
</filter>
<filter id="filter3_d" x="500" y="224" width="320" height="140" filterUnits="userSpaceOnUse" color-interpolation-filters="sRGB">
<feFlood flood-opacity="0" result="BackgroundImageFix"/>
<feColorMatrix in="SourceAlpha" type="matrix" values="0 0 0 0 0 0 0 0 0 0 0 0 0 0 0 0 0 0 127 0"/>
<feOffset dy="20"/>
<feGaussianBlur stdDeviation="20"/>
<feColorMatrix type="matrix" values="0 0 0 0 0.333333 0 0 0 0 0.388235 0 0 0 0 0.992157 0 0 0 0.239702 0"/>
<feBlend mode="normal" in2="BackgroundImageFix" result="effect1_dropShadow"/>
<feBlend mode="normal" in="SourceGraphic" in2="effect1_dropShadow" result="shape"/>
</filter>
<linearGradient id="paint0_linear" x1="1820" y1="212" x2="1632.46" y2="-420.386" gradientUnits="userSpaceOnUse">
<stop stop-color="#5556FF"/>
<stop offset="1" stop-color="#408DF7"/>
</linearGradient>
<radialGradient id="paint1_radial" cx="0" cy="0" r="1" gradientUnits="userSpaceOnUse" gradientTransform="translate(511 100.992) rotate(91.8391) scale(285.575)">
<stop stop-color="#DFDEFF" stop-opacity="0.651852"/>
<stop offset="1" stop-color="#CDD0FF" stop-opacity="0.01"/>
</radialGradient>
<radialGradient id="paint2_radial" cx="0" cy="0" r="1" gradientUnits="userSpaceOnUse" gradientTransform="translate(1281 264.984) rotate(91.8391) scale(571.15)">
<stop stop-color="#7100FF" stop-opacity="0.571241"/>
<stop offset="1" stop-color="#CDD0FF" stop-opacity="0.01"/>
</radialGradient>
</defs>
</svg>
